<svg xmlns="http://www.w3.org/2000/svg" viewBox="0 0 512 512">
  <defs>
    <linearGradient id="bgGrad" x1="0" y1="0" x2="1" y2="1">
      <stop offset="0" stop-color="#061713"/>
      <stop offset="0.5" stop-color="#0c2b22"/>
      <stop offset="1" stop-color="#061713"/>
    </linearGradient>
    <linearGradient id="goldGrad" x1="0" y1="0" x2="1" y2="1">
      <stop offset="0" stop-color="#d9b56d"/>
      <stop offset="1" stop-color="#a97d38"/>
    </linearGradient>
  </defs>
  
  <rect width="512" height="512" rx="115" fill="url(#bgGrad)"/>
  
  <circle cx="256" cy="256" r="170" fill="none" stroke="#dfbd7c" stroke-opacity="0.15" stroke-width="2"/>
  
  <g transform="translate(256 256) scale(14) translate(-12 -12)">
    <path d="M6.62 10.79c1.44 2.83 3.76 5.14 6.59 6.59l2.2-2.2c.27-.27.67-.36 1.02-.24 1.12.37 2.33.57 3.57.57.55 0 1 .45 1 1V20c0 .55-.45 1-1 1-9.39 0-17-7.61-17-17 0-.55.45-1 1-1h3.5c.55 0 1 .45 1 1 0 1.25.2 2.45.57 3.57.11.35.03.74-.25 1.02l-2.2 2.2z" 
          fill="url(#goldGrad)"/>
  </g>
</svg>